<?xml version="1.0" standalone="no"?>
<!DOCTYPE svg PUBLIC "-//W3C//DTD SVG 20010904//EN"
 "http://www.w3.org/TR/2001/REC-SVG-20010904/DTD/svg10.dtd">
<svg version="1.0" xmlns="http://www.w3.org/2000/svg"
 width="339.000000pt" height="339.000000pt" viewBox="0 0 339.000000 339.000000"
 preserveAspectRatio="xMidYMid meet">
<metadata>
Created by potrace 1.11, written by Peter Selinger 2001-2013
</metadata>
<g transform="translate(0.000000,339.000000) scale(0.100000,-0.100000)"
fill="#000000" stroke="none">
<path d="M1470 3375 c-121 -19 -128 -21 -216 -45 -102 -29 -157 -50 -274 -107
-87 -42 -203 -111 -247 -147 -191 -154 -276 -243 -384 -403 -120 -177 -214
-404 -245 -593 -3 -19 -7 -37 -9 -40 -17 -28 -25 -337 -12 -452 55 -474 310
-893 705 -1162 103 -70 278 -156 397 -195 161 -53 283 -73 470 -76 206 -4 292
6 460 51 290 77 548 232 762 457 191 203 349 500 397 747 3 14 9 48 15 75 16
81 23 182 23 305 -1 474 -233 949 -607 1245 -27 22 -52 42 -55 45 -18 19 -181
115 -260 153 -128 61 -315 120 -424 133 -22 3 -48 8 -56 11 -33 12 -357 10
-440 -2z"/>
</g>
</svg>
