<?xml version="1.0" standalone="no"?>
<!DOCTYPE svg PUBLIC "-//W3C//DTD SVG 20010904//EN"
 "http://www.w3.org/TR/2001/REC-SVG-20010904/DTD/svg10.dtd">
<svg version="1.0" xmlns="http://www.w3.org/2000/svg"
 width="2067.000000pt" height="2067.000000pt" viewBox="0 0 2067.000000 2067.000000"
 preserveAspectRatio="xMidYMid meet">
<metadata>
Created by potrace 1.11, written by Peter Selinger 2001-2013
</metadata>
<g transform="translate(0.000000,2067.000000) scale(0.100000,-0.100000)"
fill="#000000" stroke="none">
<path d="M10358 20665 c-2 -1 -37 -5 -78 -9 -68 -5 -112 -11 -235 -31 -22 -4
-65 -13 -95 -20 -30 -8 -66 -16 -80 -19 -110 -21 -396 -129 -565 -213 -192
-96 -465 -268 -580 -364 -11 -10 -49 -40 -85 -69 -197 -155 -474 -432 -676
-675 -312 -373 -617 -836 -876 -1330 -112 -214 -307 -623 -364 -766 l-15 -36
-212 63 c-199 58 -571 158 -627 168 -14 2 -74 15 -135 29 -106 25 -382 80
-455 91 -19 3 -44 7 -55 10 -11 2 -40 7 -65 10 -25 3 -55 8 -67 10 -25 5 -336
42 -426 51 -149 15 -252 19 -507 19 -340 1 -572 -14 -745 -50 -11 -3 -36 -7
-55 -10 -118 -19 -370 -88 -470 -128 -35 -14 -67 -26 -72 -26 -5 0 -59 -24
-121 -53 -460 -219 -783 -564 -946 -1009 -36 -99 -32 -85 -69 -240 -19 -86
-31 -118 -42 -118 -29 -1 -176 -66 -232 -103 -123 -82 -249 -234 -292 -353
-10 -27 -20 -56 -23 -64 -3 -8 -8 -24 -10 -35 -2 -11 -8 -36 -12 -55 -10 -38
-10 -39 -11 -155 -3 -387 302 -722 695 -761 33 -4 62 -8 63 -10 2 -1 19 -48
38 -104 50 -150 124 -340 183 -475 10 -22 31 -69 46 -105 55 -126 275 -557
361 -705 47 -82 97 -170 111 -195 175 -306 583 -902 901 -1315 99 -129 377
-476 407 -509 6 -6 46 -54 90 -106 73 -87 114 -135 140 -164 6 -6 42 -47 80
-91 39 -44 84 -95 100 -114 17 -19 51 -57 76 -85 140 -154 130 -139 110 -161
-17 -19 -218 -260 -234 -280 -21 -27 -200 -252 -213 -268 -8 -10 -68 -89 -134
-175 -66 -86 -123 -161 -127 -167 -129 -159 -506 -714 -692 -1015 -56 -91
-105 -172 -111 -180 -44 -71 -90 -154 -90 -161 0 -5 -4 -9 -10 -9 -5 0 -10 -5
-10 -10 0 -6 -20 -46 -44 -88 -24 -42 -60 -106 -80 -142 -49 -88 -232 -455
-280 -560 -21 -47 -49 -107 -61 -135 -44 -95 -173 -431 -219 -566 -51 -153
-128 -424 -152 -538 -9 -42 -18 -85 -20 -96 -7 -35 -32 -178 -39 -225 -3 -25
-8 -56 -10 -70 -4 -24 -13 -117 -21 -205 -9 -111 -3 -417 11 -515 2 -19 7 -57
11 -85 42 -334 196 -694 406 -947 103 -123 303 -304 385 -346 16 -9 20 -19 17
-39 -2 -16 -4 -66 -5 -113 -3 -416 329 -762 746 -775 179 -6 318 33 465 130
113 75 233 219 276 331 l17 44 176 1 c97 1 196 2 221 4 86 4 245 16 285 21 22
2 63 6 90 9 28 3 84 10 125 16 153 20 206 28 265 39 28 5 66 12 85 14 19 3 46
8 60 11 76 15 327 66 340 69 8 2 67 16 130 31 63 14 138 33 166 41 28 8 60 16
70 19 56 12 288 79 455 130 16 5 26 -13 124 -235 50 -111 236 -487 300 -605
65 -120 197 -348 227 -392 15 -23 28 -44 28 -48 0 -3 9 -18 19 -33 11 -15 54
-81 97 -147 137 -212 339 -484 478 -646 228 -264 471 -503 681 -670 276 -220
583 -401 860 -509 61 -24 119 -46 130 -51 30 -12 181 -58 207 -63 13 -2 50
-11 83 -19 156 -40 334 -60 545 -61 214 -1 338 10 544 49 286 55 628 192 921
368 89 53 282 182 295 197 3 3 23 19 45 35 50 37 54 40 140 112 226 188 506
478 709 733 37 47 75 94 84 105 39 48 230 318 306 434 73 112 171 272 286 471
44 74 203 378 242 460 99 209 160 338 168 355 4 11 20 45 33 75 14 30 41 96
62 145 56 138 59 145 69 145 5 0 88 -25 185 -54 424 -132 977 -269 1291 -321
19 -3 42 -8 50 -10 8 -2 35 -6 60 -9 25 -3 54 -8 65 -10 28 -5 94 -15 135 -21
19 -2 69 -9 110 -14 126 -17 162 -21 235 -27 39 -3 81 -7 95 -9 129 -22 806
-23 915 -1 11 2 49 7 85 10 36 4 79 9 97 11 49 6 267 46 274 50 3 2 16 6 30 8
114 22 400 117 499 167 11 5 28 14 38 19 316 156 560 364 739 631 105 157 214
409 248 575 17 78 26 127 31 160 3 22 7 47 9 55 24 88 24 564 1 687 -2 10 -7
41 -10 68 -40 313 -161 750 -305 1103 l-48 120 64 62 c99 96 175 218 207 330
25 89 28 109 30 225 5 219 -73 407 -235 565 -104 102 -263 185 -396 207 -83
14 -263 8 -328 -10 -72 -20 -48 -45 -228 228 -72 110 -134 202 -137 205 -5 4
-41 55 -165 231 -33 47 -209 284 -215 289 -3 3 -34 43 -70 90 -70 93 -289 368
-311 391 -8 8 -32 37 -54 64 -53 66 -335 397 -349 410 -6 6 -29 30 -50 55 -44
51 -184 206 -203 226 -21 21 -15 35 45 103 60 69 178 212 301 366 39 50 77 97
84 105 128 158 433 568 582 785 489 710 821 1293 1097 1925 132 300 272 704
324 933 2 9 6 25 8 35 2 9 11 44 19 77 9 33 25 110 36 170 28 154 30 163 37
225 3 30 7 66 10 80 18 111 24 432 11 597 -25 313 -125 635 -278 893 -125 211
-356 442 -584 585 -154 97 -398 206 -557 250 -29 8 -78 21 -108 30 -55 15
-277 58 -357 69 -24 3 -60 8 -82 11 -170 24 -593 35 -776 21 -33 -2 -103 -7
-155 -11 -52 -3 -106 -8 -120 -10 -14 -2 -54 -6 -90 -10 -36 -4 -76 -8 -90
-10 -14 -2 -61 -9 -105 -15 -44 -6 -93 -13 -110 -16 -46 -7 -136 -23 -175 -29
-41 -7 -236 -45 -265 -51 -11 -3 -31 -7 -45 -10 -228 -45 -736 -184 -1067
-292 l-92 -29 -37 86 c-49 115 -118 260 -224 471 -105 211 -154 302 -247 458
-24 41 -43 75 -43 78 0 2 -32 54 -70 116 -39 62 -74 120 -79 128 -6 10 2 27
24 55 47 57 100 159 124 238 101 331 -23 684 -307 876 -222 150 -519 174 -761
60 l-64 -30 -31 29 c-173 162 -461 375 -661 490 -272 155 -637 297 -869 336
-16 3 -52 10 -80 15 -28 6 -71 13 -96 16 -25 3 -61 8 -80 11 -37 5 -417 13
-422 9z m357 -339 c220 -22 479 -85 660 -161 147 -61 247 -111 410 -205 121
-69 373 -255 509 -376 l58 -51 -30 -47 c-76 -120 -117 -283 -109 -435 7 -121
12 -148 48 -243 46 -118 118 -221 215 -308 209 -186 517 -243 782 -144 52 20
39 35 177 -198 143 -240 370 -678 471 -908 16 -36 36 -81 45 -100 10 -19 17
-36 16 -37 -1 0 -93 -35 -203 -77 -774 -292 -1649 -705 -2499 -1181 -110 -62
-384 -220 -454 -262 -41 -25 -88 -53 -105 -63 -17 -10 -67 -39 -110 -66 l-79
-48 -31 19 c-17 9 -49 27 -71 39 -22 12 -51 29 -65 38 -60 37 -395 218 -675
366 -142 74 -683 343 -810 402 -382 178 -688 310 -1030 448 -217 87 -607 233
-745 279 -25 8 -49 19 -54 23 -4 4 8 43 28 85 20 42 36 78 36 81 0 15 248 522
315 644 87 156 97 174 156 277 93 161 343 549 369 573 3 3 30 39 59 80 132
184 336 422 513 601 407 409 800 672 1242 831 91 32 263 80 341 94 83 14 162
25 230 30 44 4 81 7 82 8 6 4 246 -2 308 -8z m2379 -811 c160 -42 287 -170
325 -329 22 -89 8 -216 -31 -291 l-14 -26 -85 113 c-91 122 -146 192 -218 278
-76 89 -205 235 -215 242 -9 6 7 12 59 21 55 9 126 6 179 -8z m-283 -465 c53
-63 140 -173 193 -244 88 -117 109 -155 89 -156 -5 -1 -34 -3 -66 -7 -118 -12
-249 34 -342 119 -135 123 -180 348 -102 507 11 23 12 22 72 -40 33 -35 103
-116 156 -179z m4409 -1683 c14 -3 54 -8 90 -12 104 -10 181 -22 315 -49 209
-43 470 -143 655 -252 216 -127 431 -359 548 -589 38 -75 79 -171 88 -205 2
-8 13 -46 24 -85 63 -217 87 -493 66 -765 -8 -111 -24 -242 -36 -305 -5 -27
-12 -68 -16 -90 -13 -97 -102 -427 -164 -615 -63 -190 -180 -492 -245 -635
-105 -229 -289 -591 -382 -750 -13 -22 -29 -51 -36 -65 -7 -14 -35 -62 -62
-108 -28 -46 -59 -99 -70 -118 -71 -124 -344 -544 -463 -714 -312 -444 -639
-868 -969 -1259 l-29 -34 -120 123 c-129 133 -609 611 -791 787 l-112 108 -5
75 c-3 41 -8 107 -11 145 -3 39 -7 97 -10 130 -3 33 -8 87 -10 120 -3 33 -7
78 -10 100 -2 22 -7 72 -10 110 -3 39 -8 86 -10 105 -2 19 -7 60 -10 90 -3 30
-8 71 -10 90 -9 72 -24 194 -30 245 -7 68 -16 141 -20 165 -2 14 -7 45 -10 70
-4 25 -8 56 -10 70 -2 14 -6 43 -9 65 -5 36 -50 322 -61 388 -3 15 -7 39 -9
55 -7 38 -34 191 -51 287 -15 84 -16 86 -40 205 -8 41 -17 86 -20 100 -7 38
-35 170 -45 215 -16 70 -52 229 -55 248 -2 10 -18 75 -35 145 -17 70 -33 134
-35 142 -28 126 -177 652 -255 895 -88 276 -201 597 -281 798 -21 53 -39 103
-39 110 0 8 54 30 138 56 75 24 155 49 177 57 223 74 785 211 1060 258 50 9
101 18 114 21 12 2 42 7 65 9 22 3 52 8 66 10 94 18 303 41 465 51 61 4 112 9
114 11 5 5 573 -4 601 -9z m-12725 -121 c50 -4 106 -9 125 -11 19 -2 67 -7
105 -10 39 -4 81 -8 95 -10 14 -2 63 -9 110 -15 265 -33 643 -105 925 -177 55
-13 107 -26 115 -28 8 -2 35 -8 60 -15 25 -7 50 -13 55 -15 76 -17 480 -136
487 -143 4 -4 -24 -90 -62 -191 -123 -325 -351 -1035 -395 -1227 -2 -10 -14
-53 -25 -94 -11 -41 -22 -82 -24 -90 -71 -286 -116 -470 -120 -490 -2 -14 -18
-86 -35 -160 -16 -74 -32 -146 -35 -160 -2 -14 -10 -50 -16 -80 -6 -30 -13
-66 -15 -80 -2 -14 -13 -70 -24 -125 -21 -104 -46 -245 -56 -305 -3 -19 -12
-71 -20 -115 -7 -44 -16 -98 -20 -120 -5 -36 -19 -127 -30 -195 -2 -14 -7 -45
-10 -70 -3 -25 -8 -56 -10 -70 -7 -51 -15 -106 -20 -150 -4 -25 -8 -56 -10
-70 -2 -14 -7 -50 -10 -80 -3 -30 -8 -66 -10 -80 -2 -14 -6 -50 -10 -80 -3
-30 -8 -71 -10 -90 -4 -32 -9 -77 -19 -185 -10 -99 -18 -173 -22 -205 -2 -19
-6 -69 -9 -110 -4 -41 -8 -91 -10 -110 -2 -19 -7 -80 -10 -135 -4 -55 -8 -116
-10 -135 -2 -19 -7 -91 -11 -160 -4 -69 -8 -141 -9 -160 -2 -19 -4 -44 -4 -55
-1 -11 -41 -61 -89 -111 -100 -105 -327 -344 -369 -390 -42 -47 -109 -121
-193 -214 -41 -45 -93 -102 -115 -126 l-40 -43 -196 222 c-109 122 -260 299
-338 392 -77 94 -147 177 -154 185 -58 64 -396 502 -547 710 -235 323 -543
796 -705 1085 -89 159 -184 337 -244 460 -64 130 -88 180 -154 325 -13 31 -53
128 -87 215 -34 88 -66 169 -70 180 -15 35 -50 148 -47 151 1 1 25 13 52 27
133 67 260 202 331 350 57 120 73 203 70 347 -4 142 -6 151 -46 261 -67 185
-225 354 -405 434 -62 27 -135 50 -149 46 -29 -7 63 279 131 408 173 328 444
559 838 714 92 36 319 101 389 111 21 4 41 8 45 10 3 2 31 7 61 11 30 4 57 8
60 10 3 2 34 6 70 10 36 4 76 9 90 10 14 2 75 7 135 11 61 3 111 8 113 9 5 5
469 -3 557 -9z m9655 -578 c118 -300 319 -896 365 -1078 2 -8 20 -71 40 -140
29 -100 102 -373 121 -450 2 -8 17 -69 33 -135 16 -66 41 -174 56 -240 14 -66
32 -147 40 -180 17 -73 116 -577 129 -660 3 -16 16 -102 31 -190 23 -144 38
-242 51 -330 2 -16 6 -41 9 -55 2 -14 7 -47 10 -75 3 -27 7 -61 9 -75 5 -26
27 -195 31 -240 2 -14 6 -45 9 -70 3 -25 8 -65 10 -90 3 -25 7 -65 10 -90 3
-25 8 -72 11 -105 3 -33 8 -79 10 -102 3 -24 7 -62 10 -85 2 -24 7 -83 11
-133 l6 -90 -48 45 c-27 24 -54 49 -60 55 -6 5 -26 23 -45 39 -70 61 -184 161
-189 166 -3 3 -61 53 -130 110 -69 58 -129 110 -135 116 -5 6 -37 33 -70 60
-32 27 -68 57 -80 66 -11 9 -101 83 -200 164 -99 80 -189 154 -200 163 -218
180 -1024 788 -1312 989 -10 7 -92 65 -183 128 -400 280 -1094 732 -1512 983
-76 46 -138 84 -138 86 0 6 510 302 717 416 32 17 85 46 118 65 170 93 282
151 635 327 212 106 489 239 615 296 127 56 250 112 275 123 171 77 848 346
877 347 6 1 35 -59 63 -131z m-6795 -111 c243 -91 660 -260 815 -330 30 -13
102 -45 160 -70 58 -25 143 -63 190 -85 47 -22 108 -50 135 -62 271 -123 816
-398 1205 -610 298 -163 314 -172 323 -180 5 -4 -16 -22 -45 -41 -103 -65
-263 -169 -273 -176 -6 -5 -78 -53 -160 -107 -360 -238 -768 -526 -1195 -845
-151 -113 -284 -213 -295 -222 -11 -10 -78 -63 -150 -119 -264 -205 -439 -347
-729 -590 -89 -74 -172 -144 -186 -156 -14 -12 -65 -57 -115 -99 -49 -43 -103
-89 -120 -104 -52 -45 -399 -355 -416 -371 -8 -8 -67 -62 -129 -120 -63 -58
-131 -121 -151 -140 -20 -19 -107 -102 -194 -185 -140 -134 -189 -176 -173
-149 3 5 9 54 13 108 10 141 23 289 30 351 2 17 6 71 10 120 3 50 8 97 10 105
3 8 7 44 10 80 3 36 8 82 10 103 11 81 15 119 19 155 11 91 19 148 22 167 2
11 6 40 9 65 20 177 89 610 140 890 9 47 18 99 21 115 3 17 19 95 36 175 16
80 31 156 34 170 14 81 110 482 208 870 89 349 300 995 465 1422 l10 28 168
-59 c92 -32 222 -79 288 -104z m-5321 -966 c221 -107 307 -379 189 -604 -35
-66 -130 -167 -158 -167 -11 0 -42 122 -59 230 -8 45 -25 164 -30 201 -10 72
-20 281 -17 352 1 22 3 22 75 -12z m-408 -73 c1 -82 13 -266 19 -298 2 -14 7
-51 10 -83 3 -31 9 -76 14 -100 5 -23 12 -58 15 -77 3 -19 12 -68 21 -109 8
-41 13 -76 11 -79 -8 -7 -85 27 -130 57 -88 61 -155 158 -185 265 -29 107 7
274 79 369 35 45 118 117 135 117 6 0 11 -28 11 -62z m9166 -652 c447 -269
1099 -690 1473 -953 517 -362 1045 -755 1440 -1071 44 -36 98 -79 119 -96 91
-72 274 -221 375 -306 36 -30 75 -62 86 -71 67 -55 428 -366 469 -404 12 -11
62 -56 111 -99 85 -75 267 -240 307 -278 13 -13 18 -34 19 -70 1 -29 2 -66 4
-83 2 -16 6 -111 9 -210 4 -99 9 -238 12 -310 3 -71 5 -326 5 -565 0 -403 -2
-525 -16 -920 l-5 -145 -134 -130 c-217 -212 -535 -510 -642 -602 -22 -19
-180 -161 -198 -178 -6 -6 -94 -82 -196 -170 -102 -88 -187 -162 -190 -165 -3
-3 -84 -71 -180 -151 -924 -768 -1851 -1444 -2802 -2044 -90 -57 -144 -85
-154 -81 -68 26 -811 488 -1199 745 -154 102 -284 188 -290 190 -5 2 -12 7
-15 11 -3 3 -74 53 -158 111 -178 121 -427 299 -647 460 -512 376 -899 679
-1380 1080 -143 119 -305 256 -360 304 -196 171 -240 211 -290 255 -27 25 -69
63 -94 85 -24 22 -52 47 -61 55 -9 8 -41 37 -71 64 -30 27 -113 105 -184 172
l-131 122 -2 93 c-2 52 -5 150 -7 219 -11 313 -5 1199 9 1471 l5 84 218 215
c174 170 422 408 507 485 6 6 43 40 81 75 93 86 261 239 284 259 10 9 49 43
87 77 74 65 306 268 389 339 336 288 882 724 1290 1031 138 103 517 380 581
424 12 8 93 65 180 126 256 178 482 330 744 499 135 86 261 168 280 180 19 13
42 24 51 24 8 1 131 -68 271 -153z m5178 -4051 c207 -209 340 -347 340 -355 0
-5 -76 -90 -239 -270 -78 -86 -128 -140 -235 -255 -148 -157 -281 -295 -288
-295 -4 0 -4 21 -1 48 8 66 8 1072 -1 1337 l-7 220 122 -120 c66 -66 206 -205
309 -310z m-10494 -479 l0 -585 -171 173 c-235 240 -375 385 -375 390 0 3 6
11 13 18 6 7 43 49 82 93 38 44 74 85 80 91 5 6 48 53 95 104 47 52 112 123
145 158 33 35 76 82 95 103 19 21 35 39 35 39 1 0 1 -263 1 -584z m11141 -203
c106 -117 284 -321 412 -473 62 -74 123 -146 135 -160 56 -65 344 -430 438
-555 183 -245 480 -665 508 -720 3 -5 26 -42 53 -82 26 -39 47 -74 47 -77 0
-3 -10 -15 -22 -28 -84 -86 -162 -229 -193 -353 -24 -94 -24 -276 -1 -365 41
-151 112 -274 218 -376 177 -171 378 -236 656 -213 l54 4 34 -84 c116 -288
251 -750 279 -956 1 -11 6 -47 10 -80 4 -33 9 -68 11 -78 21 -118 20 -488 -2
-602 -2 -11 -7 -40 -10 -65 -3 -25 -8 -49 -11 -53 -3 -5 -7 -23 -10 -40 -7
-52 -71 -234 -109 -316 -122 -258 -350 -492 -619 -638 -202 -109 -415 -182
-675 -232 -97 -19 -124 -23 -227 -36 -267 -32 -586 -36 -923 -10 -104 8 -313
30 -380 40 -14 3 -43 7 -65 9 -203 26 -763 140 -1010 207 -214 57 -380 105
-545 156 -80 24 -148 48 -153 52 -4 4 0 25 9 47 69 163 267 774 368 1134 37
133 126 472 132 504 2 11 15 67 29 125 43 186 83 363 104 471 12 58 24 116 27
130 3 14 6 34 8 45 2 11 8 45 14 75 6 30 14 69 17 85 12 71 17 96 35 195 17
97 30 176 46 274 3 21 7 46 9 55 1 9 6 41 10 71 4 30 9 64 11 75 3 11 7 38 9
60 3 22 7 51 10 65 3 14 7 43 10 65 2 21 9 73 15 115 6 41 12 93 14 115 6 51
15 131 21 170 2 17 7 57 10 90 4 33 8 71 11 85 2 14 6 58 10 98 3 40 7 82 9
92 2 11 7 61 11 112 3 51 8 102 10 113 2 10 6 64 10 120 3 55 8 107 9 117 2 9
7 70 11 135 4 65 8 134 9 153 2 19 3 56 4 83 l1 47 184 188 c188 191 213 216
411 427 151 161 167 179 303 332 64 73 120 133 123 133 3 0 37 -35 76 -77z
m-11113 -956 c3 -45 8 -127 11 -182 4 -55 8 -116 10 -135 1 -19 6 -84 10 -145
4 -60 9 -117 10 -126 2 -9 6 -59 10 -111 3 -52 8 -108 10 -124 2 -16 6 -60 10
-99 3 -38 8 -86 10 -105 6 -55 13 -120 20 -180 3 -30 7 -71 10 -90 2 -19 9
-71 14 -115 6 -44 13 -102 16 -130 3 -27 8 -61 10 -75 6 -35 12 -77 20 -135 4
-27 8 -63 10 -80 3 -16 16 -102 30 -190 14 -88 28 -176 31 -195 2 -19 6 -46 9
-60 8 -37 13 -63 19 -101 9 -54 15 -86 41 -224 13 -71 26 -141 29 -155 6 -34
27 -133 30 -145 2 -5 6 -28 10 -50 30 -156 202 -871 236 -980 6 -16 19 -64 31
-105 99 -358 333 -1063 424 -1275 27 -63 27 -63 -23 -79 -212 -69 -776 -213
-943 -241 -19 -3 -65 -12 -104 -20 -38 -7 -90 -16 -115 -20 -25 -3 -52 -8 -60
-10 -8 -2 -35 -7 -60 -10 -25 -3 -72 -10 -105 -15 -33 -5 -82 -12 -110 -15
-27 -3 -63 -8 -80 -10 -30 -4 -138 -14 -225 -21 -25 -2 -138 -6 -251 -9 l-206
-5 -13 72 c-28 161 -103 303 -220 418 -72 71 -203 160 -235 160 -7 0 -16 4
-19 9 -5 7 -35 17 -111 37 -74 19 -210 24 -305 11 -159 -21 -347 -127 -461
-258 l-52 -59 -51 41 c-320 252 -503 591 -567 1049 -24 166 -18 499 11 700 6
41 13 91 16 110 2 19 11 67 19 105 9 39 18 81 20 94 41 222 216 748 345 1036
15 33 40 89 56 125 54 123 223 460 315 627 192 351 475 801 730 1163 33 47 68
96 77 110 24 35 155 212 270 364 108 143 383 490 507 637 l79 96 398 -399 397
-399 5 -82z m378 -269 c13 -13 51 -48 84 -78 34 -30 101 -91 149 -135 48 -44
97 -86 108 -94 11 -8 32 -26 46 -41 20 -20 392 -340 551 -473 354 -297 1126
-898 1450 -1130 14 -9 61 -43 105 -75 499 -364 1240 -855 1838 -1217 98 -59
176 -109 175 -110 -8 -7 -370 -218 -518 -302 -112 -63 -317 -175 -560 -306
-104 -55 -619 -313 -710 -355 -36 -16 -110 -51 -165 -77 -286 -134 -683 -302
-1010 -427 -238 -91 -482 -178 -499 -178 -19 0 -241 607 -337 925 -65 210 -92
303 -120 405 -40 144 -110 407 -120 450 -4 19 -17 73 -29 120 -11 47 -35 146
-51 220 -17 74 -32 142 -34 150 -6 24 -33 154 -38 180 -3 14 -12 59 -20 100
-9 41 -19 91 -22 110 -3 19 -15 80 -25 135 -26 135 -50 272 -56 315 -2 19 -9
60 -14 90 -15 87 -18 108 -35 220 -9 58 -17 116 -20 130 -2 14 -7 50 -10 80
-4 30 -9 62 -10 70 -2 8 -6 38 -9 65 -21 162 -26 205 -31 250 -6 52 -11 97
-20 178 -17 150 -28 270 -40 422 -4 44 -8 91 -10 105 -2 14 -6 70 -10 125 -3
55 -8 117 -11 138 -6 43 -3 45 28 15z m9282 -165 c-2 -21 -6 -72 -9 -113 -3
-41 -8 -93 -10 -115 -2 -22 -7 -71 -10 -110 -3 -38 -10 -108 -15 -155 -5 -47
-12 -112 -15 -145 -3 -33 -10 -94 -15 -135 -5 -41 -12 -100 -15 -130 -3 -30
-8 -66 -10 -80 -4 -23 -9 -58 -21 -155 -2 -22 -7 -51 -9 -65 -2 -14 -7 -45
-10 -70 -3 -25 -8 -56 -10 -70 -2 -14 -7 -45 -10 -70 -6 -45 -71 -446 -79
-486 -2 -12 -7 -38 -10 -58 -3 -19 -10 -55 -15 -78 -5 -24 -13 -63 -16 -88 -4
-24 -8 -47 -10 -50 -2 -3 -6 -26 -10 -50 -3 -25 -11 -65 -17 -90 -5 -25 -11
-54 -14 -65 -2 -11 -7 -33 -11 -50 -8 -35 -7 -29 -17 -80 -34 -177 -157 -681
-232 -947 -25 -90 -47 -167 -48 -173 -1 -5 -10 -35 -20 -65 -10 -30 -19 -66
-22 -79 -5 -26 -228 -689 -266 -792 -25 -67 -28 -69 -73 -49 -11 5 -78 30
-150 56 -71 26 -155 56 -185 67 -437 159 -1289 537 -1815 804 -157 80 -378
195 -430 223 -27 15 -90 49 -140 75 -49 27 -146 80 -215 118 -69 38 -135 75
-146 81 -20 11 -12 18 95 86 155 98 682 449 801 533 52 37 103 73 113 80 11 6
62 43 115 81 404 290 757 553 1007 751 50 39 133 105 185 146 129 101 664 540
680 559 3 3 70 61 150 130 153 131 312 270 320 279 3 3 43 40 89 81 47 41 97
86 111 100 15 14 71 66 125 115 54 50 110 101 125 115 14 14 60 58 102 98 42
39 78 72 81 72 3 0 3 -17 1 -37z m3689 -809 c55 -11 150 -62 192 -101 168
-157 197 -384 75 -576 -16 -26 -33 -47 -37 -47 -5 0 -45 73 -90 163 -112 221
-274 516 -304 554 -7 7 -5 13 3 15 17 6 121 1 161 -8z m-382 -295 c77 -135
153 -276 242 -451 l64 -128 -47 0 c-120 0 -267 81 -342 189 -59 84 -81 165
-76 275 3 77 9 102 38 164 18 40 38 71 44 69 6 -2 41 -55 77 -118z m-7716
-2293 c23 -15 53 -32 305 -171 250 -138 466 -254 525 -282 17 -8 41 -21 55
-29 69 -39 814 -404 825 -404 2 0 56 -25 120 -55 63 -30 118 -55 120 -55 3 0
35 -14 72 -31 106 -49 398 -173 539 -230 71 -28 143 -57 159 -64 17 -7 98 -39
180 -70 83 -31 159 -60 170 -64 48 -20 223 -81 233 -81 7 0 12 -3 12 -6 0 -9
-107 -260 -151 -352 -21 -46 -39 -86 -39 -88 0 -8 -209 -429 -263 -529 -337
-629 -723 -1164 -1132 -1570 -750 -743 -1564 -1045 -2395 -890 -21 4 -188 46
-240 60 -42 11 -216 78 -295 113 -285 126 -606 342 -874 587 -161 147 -383
382 -483 511 -13 16 -33 40 -45 54 -12 14 -54 68 -93 120 -39 52 -80 106 -92
120 -18 23 -286 426 -315 475 -61 101 -154 262 -211 367 -131 237 -402 802
-390 813 2 1 32 13 68 25 197 68 600 223 840 323 845 352 1819 850 2605 1330
77 47 147 86 155 86 9 1 24 -5 35 -13z m-7105 -1576 c119 -40 208 -117 260
-224 31 -64 42 -112 25 -110 -5 1 -32 5 -60 8 -210 26 -499 100 -649 167 -55
24 -53 34 17 86 76 57 125 78 204 89 27 3 49 7 50 8 9 8 104 -7 153 -24z
m-425 -517 c68 -24 237 -72 316 -88 103 -23 96 -21 174 -34 39 -6 81 -13 95
-15 14 -3 35 -5 48 -5 32 -1 28 -15 -25 -69 -141 -146 -347 -177 -532 -82 -61
31 -143 115 -176 181 -30 58 -57 147 -49 160 3 5 28 -1 57 -12 29 -12 70 -28
92 -36z"/>
<path d="M11670 12833 c-1 -21 -1 -605 -1 -1298 0 -1226 -1 -1261 -20 -1313
-166 -455 -605 -832 -1044 -899 -75 -12 -230 -6 -315 11 -106 21 -151 37 -267
97 -277 141 -528 406 -666 704 l-37 81 0 1321 0 1321 -250 0 -250 1 0 -2620 0
-2619 63 -1 c34 0 146 -1 250 -2 l187 -2 0 857 0 858 53 -49 c216 -203 476
-352 737 -420 272 -71 570 -59 850 35 209 70 495 247 667 413 18 17 35 31 37
31 3 0 5 -102 5 -227 0 -126 0 -244 0 -264 l1 -36 233 -1 c127 0 239 2 248 4
15 4 17 167 17 2029 l0 2025 -249 0 -249 0 0 -37z"/>
</g>
</svg>
